<svg width="311" height="83" viewBox="0 0 311 83" fill="none" xmlns="http://www.w3.org/2000/svg">
<rect x="1.75771" y="1.75771" width="307.485" height="79.4846" rx="7.49383" fill="black"/>
<path fill-rule="evenodd" clip-rule="evenodd" d="M39.3236 24.7246L22.0156 44.8551H37.5928L35.862 58.2754L53.1699 38.1449H37.5928L39.3236 24.7246Z" stroke="#FB5574" stroke-width="2" stroke-linecap="round" stroke-linejoin="round"/>
<path d="M96.1581 35.1743V32.4303H110.575V35.1743H104.99V50.5H101.743V35.1743H96.1581ZM111.806 50.5V36.9477H114.903V39.2064H115.044C115.291 38.4241 115.715 37.8212 116.314 37.3977C116.92 36.9683 117.611 36.7536 118.388 36.7536C118.564 36.7536 118.761 36.7624 118.979 36.7801C119.203 36.7918 119.388 36.8124 119.535 36.8418V39.7799C119.4 39.7329 119.185 39.6917 118.891 39.6564C118.603 39.6152 118.323 39.5946 118.053 39.5946C117.47 39.5946 116.947 39.7211 116.482 39.974C116.023 40.2211 115.662 40.5652 115.397 41.0063C115.132 41.4475 115 41.9563 115 42.5327V50.5H111.806ZM124.055 55.5821C123.619 55.5821 123.216 55.5468 122.846 55.4762C122.481 55.4115 122.19 55.3351 121.972 55.2468L122.713 52.7587C123.178 52.894 123.593 52.9587 123.958 52.9528C124.322 52.9469 124.643 52.8322 124.919 52.6087C125.202 52.3911 125.44 52.0264 125.634 51.5147L125.907 50.7823L120.993 36.9477H124.381L127.504 47.1825H127.646L130.778 36.9477H134.175L128.748 52.1411C128.496 52.8587 128.16 53.4734 127.743 53.9851C127.325 54.5027 126.813 54.8968 126.207 55.1674C125.607 55.4439 124.89 55.5821 124.055 55.5821ZM142.548 50.5V36.9477H145.742V50.5H142.548ZM144.154 35.0243C143.648 35.0243 143.212 34.8566 142.848 34.5214C142.483 34.1802 142.301 33.7714 142.301 33.2949C142.301 32.8126 142.483 32.4038 142.848 32.0685C143.212 31.7274 143.648 31.5568 144.154 31.5568C144.665 31.5568 145.101 31.7274 145.459 32.0685C145.824 32.4038 146.006 32.8126 146.006 33.2949C146.006 33.7714 145.824 34.1802 145.459 34.5214C145.101 34.8566 144.665 35.0243 144.154 35.0243ZM155.793 36.9477V39.4182H148.003V36.9477H155.793ZM149.926 33.7008H153.12V46.4237C153.12 46.8531 153.185 47.1825 153.314 47.4119C153.449 47.6354 153.626 47.7884 153.844 47.8707C154.061 47.9531 154.302 47.9942 154.567 47.9942C154.767 47.9942 154.949 47.9795 155.114 47.9501C155.285 47.9207 155.414 47.8942 155.502 47.8707L156.041 50.3677C155.87 50.4265 155.626 50.4912 155.308 50.5618C154.996 50.6323 154.614 50.6735 154.161 50.6853C153.361 50.7088 152.641 50.5882 152 50.3235C151.358 50.053 150.85 49.6353 150.473 49.0707C150.103 48.506 149.92 47.8001 149.926 46.9531V33.7008ZM179.618 32.4303V50.5H176.706L168.192 38.1918H168.042V50.5H164.769V32.4303H167.698L176.204 44.7473H176.362V32.4303H179.618ZM188.955 50.7647C187.632 50.7647 186.485 50.4735 185.514 49.8912C184.544 49.3089 183.791 48.4942 183.255 47.4472C182.726 46.4002 182.461 45.1767 182.461 43.7768C182.461 42.3769 182.726 41.1504 183.255 40.0976C183.791 39.0447 184.544 38.2271 185.514 37.6447C186.485 37.0624 187.632 36.7712 188.955 36.7712C190.279 36.7712 191.426 37.0624 192.396 37.6447C193.367 38.2271 194.117 39.0447 194.646 40.0976C195.181 41.1504 195.449 42.3769 195.449 43.7768C195.449 45.1767 195.181 46.4002 194.646 47.4472C194.117 48.4942 193.367 49.3089 192.396 49.8912C191.426 50.4735 190.279 50.7647 188.955 50.7647ZM188.973 48.206C189.69 48.206 190.29 48.0089 190.773 47.6148C191.255 47.2149 191.614 46.6796 191.849 46.009C192.09 45.3385 192.211 44.5915 192.211 43.768C192.211 42.9386 192.09 42.1886 191.849 41.5181C191.614 40.8416 191.255 40.3034 190.773 39.9034C190.29 39.5035 189.69 39.3035 188.973 39.3035C188.238 39.3035 187.626 39.5035 187.138 39.9034C186.655 40.3034 186.293 40.8416 186.052 41.5181C185.817 42.1886 185.699 42.9386 185.699 43.768C185.699 44.5915 185.817 45.3385 186.052 46.009C186.293 46.6796 186.655 47.2149 187.138 47.6148C187.626 48.0089 188.238 48.206 188.973 48.206ZM200.569 50.5L196.739 36.9477H199.995L202.377 46.4767H202.501L204.936 36.9477H208.156L210.592 46.4237H210.724L213.071 36.9477H216.335L212.497 50.5H209.171L206.63 41.3416H206.445L203.904 50.5H200.569Z" fill="white"/>
<path fill-rule="evenodd" clip-rule="evenodd" d="M261.033 41.5006C261.033 41.2534 261.131 41.0165 261.306 40.8417C261.481 40.667 261.718 40.5688 261.965 40.5688L283.94 40.5688L278.076 34.7064C277.901 34.5315 277.803 34.2942 277.803 34.0468C277.803 33.7994 277.901 33.5621 278.076 33.3871C278.251 33.2122 278.488 33.1139 278.736 33.1139C278.983 33.1139 279.221 33.2122 279.396 33.3871L286.849 40.8409C286.936 40.9274 287.005 41.0303 287.052 41.1435C287.099 41.2566 287.123 41.378 287.123 41.5005C287.123 41.6231 287.099 41.7445 287.052 41.8576C287.005 41.9708 286.936 42.0737 286.849 42.1602L279.396 49.614C279.221 49.7889 278.983 49.8872 278.736 49.8872C278.488 49.8872 278.251 49.7889 278.076 49.614C277.901 49.439 277.803 49.2017 277.803 48.9543C277.803 48.7069 277.901 48.4696 278.076 48.2947L283.94 42.4323L261.965 42.4323C261.718 42.4323 261.481 42.3341 261.306 42.1594C261.131 41.9846 261.033 41.7477 261.033 41.5006Z" fill="white"/>
<rect x="1.75771" y="1.75771" width="307.485" height="79.4846" rx="7.49383" stroke="url(#paint0_linear_92_2)" stroke-width="2.48459"/>
<defs>
<linearGradient id="paint0_linear_92_2" x1="3" y1="21.5096" x2="305.667" y2="68.9668" gradientUnits="userSpaceOnUse">
<stop stop-color="#FC566E"/>
<stop offset="0.456596" stop-color="#ED3ED0"/>
<stop offset="1" stop-color="#9617E8"/>
</linearGradient>
</defs>
</svg>
